<?xml version="1.0" encoding="utf-8"?>
<!-- Svg Vector Icons : http://www.onlinewebfonts.com/icon -->
<!DOCTYPE svg PUBLIC "-//W3C//DTD SVG 1.1//EN" "http://www.w3.org/Graphics/SVG/1.1/DTD/svg11.dtd">
<svg version="1.1" xmlns="http://www.w3.org/2000/svg" xmlns:xlink="http://www.w3.org/1999/xlink" x="0px" y="0px" viewBox="0 0 256 256" enable-background="new 0 0 256 256" xml:space="preserve">
<metadata> Svg Vector Icons : http://www.onlinewebfonts.com/icon </metadata>
<g><g><g><path fill="currentColor" d="M66.4,10.3c-2.9,0.5-6.6,1.7-9.7,3.3c-2.9,1.5-5.3,3.7-22.4,20.8C17.2,51.6,15,53.9,13.5,56.8c-2.7,5.2-3.3,8-3.3,14.1c0,4.7,0.1,5.7,1.4,9.2c0.8,2.2,2.2,5.2,3.2,6.7c1,1.6,8.1,9.2,16.7,17.8c16.9,17.1,17.3,17.5,17.3,23.5c0,6.1-0.3,6.4-17.5,23.8c-16.3,16.4-17.9,18.4-19.9,24.9c-2.2,7.3-1.6,14.8,1.9,21.9c1.8,3.8,2.5,4.5,16.7,18.8c8.1,8.2,14.9,14.8,15.1,14.7c0.1-0.1,0.7,0.6,1.2,1.4c1.2,2.2,3.3,3.4,6,3.4c3,0,5.2-1.2,6.6-3.7c1.9-3.5,0.9-7.2-2.6-9.4c-0.8-0.5-1.4-1.2-1.3-1.4c0.1-0.3-5.6-6.3-12.6-13.4c-13.8-13.9-14.7-15.1-15.7-20.7c-0.5-2.4-0.5-3.7,0-5.9c1.1-5.9,1.8-6.7,18.5-23.7c16.6-16.7,17.3-17.6,19.2-24c1.1-3.6,1.1-9.7,0-13.3c-1.9-6.4-2.6-7.3-19.2-24c-16.8-17-17.5-17.9-18.5-23.8c-0.6-3.7,0.1-8,2-11.5c1.9-3.6,30.5-32.1,33.9-33.8c3.5-1.8,7.7-2.4,11.3-1.8c5.9,1.1,6.7,1.7,23.8,18.5c16.7,16.6,17.6,17.3,24,19.2c3.6,1.1,9.7,1.1,13.3,0c6.4-1.9,7.3-2.6,24-19.2c16.9-16.7,17.8-17.4,23.7-18.5c3.5-0.6,7.8,0,11.3,1.8c3.4,1.7,32,30.2,33.9,33.8c1.9,3.6,2.6,7.8,2,11.5c-1.1,5.9-1.7,6.7-18.8,24c-13.8,14-15.9,16.3-17.2,18.9c-3.6,7.6-3.6,15.5,0,23.1c1.2,2.6,3.3,4.9,17.1,18.9c17.1,17.3,17.7,18.1,18.8,24c0.6,3.6,0,7.7-1.8,11.3c-1.7,3.4-30.2,32-33.8,33.9c-3.6,1.9-7.8,2.6-11.5,2c-5.9-1.1-6.7-1.7-24-18.8c-14-13.8-16.3-15.9-18.9-17.1c-4-1.9-7.3-2.7-11.5-2.7c-7.2,0-12.6,2.3-18.2,7.6c-5,4.8-5.8,7-3.9,10.9c1.2,2.6,3.5,4,6.5,4c2.4,0,2.4,0,7.6-3.7c2.4-1.8,4.5-2.4,8.3-2.4c5.8,0,6.3,0.4,23.5,17.5c16.3,16.1,17.9,17.4,24.4,19.7c3.2,1.1,4.4,1.3,9,1.3c6,0,8.9-0.6,14.1-3.3c2.9-1.5,5.3-3.7,22.4-20.8c18.9-18.8,19.2-19.3,21.1-23.1c3.5-7.1,4.1-14.6,1.9-21.9c-2-6.5-3.6-8.5-20.1-25.1c-17.6-17.8-17.5-17.7-17.2-24.2c0.1-2.4,0.5-4.4,1.1-5.6c0.6-1.2,6.5-7.5,16.1-17.3C241,88,242.3,86.4,244.5,79.9c2.5-7.5,1.9-15-1.7-22.4c-1.9-3.8-2.3-4.3-21.1-23.1c-18.8-18.9-19.3-19.2-23.1-21.1c-7.2-3.5-14.6-4.1-21.9-1.9c-6.5,2-8.5,3.6-24.9,19.9C134.4,48.5,134,48.8,128,48.8c-6,0-6.5-0.3-23.5-17.3C95.9,23,88.3,15.9,86.7,14.8c-4.2-2.7-9.6-4.4-14.7-4.6C69.7,10.1,67.2,10.2,66.4,10.3z"/><path fill="currentColor" d="M88.1,217.3c-6.6,3-5.3,12.5,2,13.9c2.2,0.4,5.4-0.9,6.9-3c1-1.3,1.2-2.1,1.2-4.3c0-2.9-0.8-4.3-3.1-6.1C93.6,216.8,89.9,216.4,88.1,217.3z"/></g></g></g>
</svg>