<?xml version="1.0" encoding="utf-8"?>
<!-- Svg Vector Icons : http://www.onlinewebfonts.com/icon -->
<!DOCTYPE svg PUBLIC "-//W3C//DTD SVG 1.1//EN" "http://www.w3.org/Graphics/SVG/1.1/DTD/svg11.dtd">
<svg version="1.1" xmlns="http://www.w3.org/2000/svg" xmlns:xlink="http://www.w3.org/1999/xlink" x="0px" y="0px" viewBox="0 0 256 256" enable-background="new 0 0 256 256" xml:space="preserve">
<metadata> Svg Vector Icons : http://www.onlinewebfonts.com/icon </metadata>
<g><g><g><path fill="currentColor" d="M120.9,10.2c-17.6,1.1-30.9,5.1-42.6,12.9C73.4,26.4,62.9,36.8,59.2,42c-23.2,32.8-30,68.4-22,116.2c3.5,21.1,10.5,39.3,20.4,53.3c3.5,4.9,14.6,16,19.5,19.5c26.4,18.7,70,20.1,95.7,3.2c20.7-13.7,35.8-42,43.8-81.7c7.7-38.8,7.2-67.9-1.7-91.1c-4.8-12.3-13.7-26.7-21.9-34.9c-10-10.1-20.8-14.7-38.1-16.1C150,10,126.6,9.9,120.9,10.2z M147.2,22.8c11.3,1.1,18.6,2.9,26.3,6.7c6.3,3,11.1,6.6,16.6,12.3c6.8,7.1,10.4,13.1,13.8,23.7c4,12,5.8,23.9,6.1,40.8c0.6,28.4-3.9,54-13.9,79c-8.5,21.2-18.6,33.5-33.9,41.1c-12.5,6.3-30.6,8.1-49.9,5.1c-16.6-2.6-29-9.4-39.9-21.9c-13.9-15.9-21.2-34.1-24.5-60.8c-1-8.3-1.4-31.2-0.7-40.6c2.9-37.5,20.1-66.2,47.1-78.6c6.7-3,16.3-5.8,24-6.7C122.7,22.3,141.3,22.3,147.2,22.8z"/><path fill="currentColor" d="M79.1,54.1c-3.3,2.2-8.1,7.1-10.6,10.7c-4,5.9-6.6,13-8.1,22.1c-1,5.6-0.9,5.7,3,5.5c2.4-0.1,2.5-0.2,2.9-1.8c0.2-0.9,1.5-4.8,2.7-8.5c4-12,7.2-17.4,13.1-21.9c1.7-1.3,3.3-2.7,3.5-3c0.9-1.6-1.2-4.8-3-4.8C82.1,52.3,80.5,53.1,79.1,54.1z"/><path fill="currentColor" d="M122.4,73.1c-13.5,1.3-22.6,9-26.7,22.3c-4.4,14.8-4.8,41-0.7,57.4c2.3,9.2,5.4,15,10.8,20c8.7,8.1,20.4,11.2,31.6,8.3c13.4-3.3,21.6-14.1,24.7-32.1c2-11.7,2.4-38.4,0.7-46.7c-0.8-4.1-3-9.5-5.4-13.5c-1.9-3.3-6.7-8.2-10.3-10.5c-3.3-2.2-9.7-4.7-12.9-5C129,72.8,126.2,72.8,122.4,73.1z M134.2,83.9c9.3,2.4,15,11.8,16.9,27.5c0.7,6.3,0.3,27.4-0.6,32.4c-1.8,9.7-4.6,16.3-8.6,20.6c-7.4,8-19.5,8.1-28,0.2c-4.5-4.2-7-9.9-8.7-19.7c-2.1-12.1-2.2-34.4-0.2-43.1c1.3-5.9,5.5-11.9,10.2-14.7c3.7-2.2,9.7-3.8,14.7-4C130.8,83.3,132.8,83.6,134.2,83.9z"/><path fill="currentColor" d="M190,120.9c-0.8,0.6-1.5,1.4-1.5,1.7c0,0.6,4.7,7.4,9.9,14.3c3.7,5,3.7,5,4.5,4c0.5-0.6,0.9-1.7,1.1-2.5c0.2-1.4-0.1-2.1-3.6-7.2c-6.1-8.9-7.9-11.4-8.4-11.4C191.7,119.7,190.8,120.2,190,120.9z"/><path fill="currentColor" d="M187.1,135.8c-1,0.8-1.9,1.5-1.9,1.7c0,0.9,13.3,19.1,13.9,19.1c0.2,0,0.8-0.9,1.3-2.1l0.9-2.1l-1-1.7c-1-1.6-8.9-13.1-10.6-15.2l-0.8-1.1L187.1,135.8z"/><path fill="currentColor" d="M184,151.3c-0.8,0.6-1.5,1.4-1.5,1.7c0,0.6,4.8,7.6,9.9,14.3c3.7,5,3.7,5,4.5,4c0.4-0.6,0.9-1.7,1.1-2.5c0.2-1.4-0.1-2.1-3.8-7.5c-6.4-9.4-7.8-11.2-8.3-11.2C185.7,150.1,184.8,150.7,184,151.3z"/><path fill="currentColor" d="M179.7,167.2l-1.6,1.3l2,3c3.5,5.2,9.7,13.3,10.1,13.3c0.8,0,1.8-3.4,1.3-4.4c-0.6-1.2-7.9-11.6-9.2-13.2l-1.1-1.3L179.7,167.2z"/><path fill="currentColor" d="M174,180.6c-0.6,0.5-1.2,1.2-1.2,1.4c0,0.6,9.4,13.8,10.7,14.9c0.8,0.7,0.9,0.7,1.6-0.9c0.4-0.9,0.7-1.8,0.7-2.1c0-0.6-9.6-14.4-10.1-14.4C175.3,179.7,174.7,180.1,174,180.6z"/><path fill="currentColor" d="M166,191.1c-0.6,0.5-1.1,1.1-1.1,1.4c0,1.1,10.5,15.3,11.2,15.1c0.3-0.1,0.8-1,1.1-1.9l0.6-1.7l-4.8-7c-2.7-3.8-5.1-6.9-5.4-6.9C167.2,190.3,166.5,190.7,166,191.1z"/><path fill="currentColor" d="M157.2,200c-0.5,0.6-1.3,1.6-1.7,2.3c-0.8,1.2-0.7,1.2,1.7,4.5c4.2,5.5,7.4,9.2,8.2,9.2c0.5,0,1.2-0.7,1.8-1.9l0.9-1.9l-1.1-1.9c-1.6-2.8-8-11.3-8.5-11.3C158.3,199,157.7,199.5,157.2,200z"/><path fill="currentColor" d="M145.2,208.5c-1.8,2.1-1.8,2.6-0.5,4.5c2.4,3.3,7.8,9.5,8.3,9.5c0.7,0,2.2-2.4,2.2-3.4c0-0.8-4.7-7.9-7.1-10.7l-1.5-1.8L145.2,208.5z"/></g></g></g>
</svg>