<?xml version="1.0" encoding="utf-8"?>
<!-- Svg Vector Icons : http://www.onlinewebfonts.com/icon -->
<!DOCTYPE svg PUBLIC "-//W3C//DTD SVG 1.1//EN" "http://www.w3.org/Graphics/SVG/1.1/DTD/svg11.dtd">
<svg version="1.1" xmlns="http://www.w3.org/2000/svg" xmlns:xlink="http://www.w3.org/1999/xlink" x="0px" y="0px" viewBox="0 0 256 256" enable-background="new 0 0 256 256" xml:space="preserve">
<metadata> Svg Vector Icons : http://www.onlinewebfonts.com/icon </metadata>
<g><g><path fill="#000000" d="M128,28.2c13.8,0,26.8,2.6,38.8,7.8c12.1,5.2,22.6,12.4,31.7,21.4c9.1,9.1,16.2,19.6,21.4,31.7c5.2,12.1,7.8,25,7.8,38.8c0,13.8-2.6,26.8-7.8,38.8c-5.2,12.1-12.4,22.6-21.4,31.7c-9.1,9.1-19.6,16.2-31.7,21.4c-12.1,5.2-25,7.8-38.8,7.8c-13.8,0-26.8-2.6-38.8-7.8c-12.1-5.2-22.6-12.4-31.7-21.4c-9.1-9.1-16.2-19.6-21.4-31.7c-5.2-12.1-7.8-25-7.8-38.8c0-13.8,2.6-26.8,7.8-38.8c5.2-12.1,12.4-22.6,21.4-31.7S77.1,41.3,89.2,36C101.2,30.8,114.2,28.2,128,28.2L128,28.2z M128,10c-16.3,0-31.6,3.1-46,9.2c-14.4,6.1-26.9,14.6-37.6,25.2C33.8,55.1,25.4,67.7,19.2,82c-6.1,14.4-9.2,29.7-9.2,46s3.1,31.6,9.2,46c6.1,14.4,14.6,26.9,25.2,37.6c10.7,10.7,23.2,19.1,37.6,25.2c14.4,6.1,29.7,9.2,46,9.2s31.6-3.1,46-9.2c14.4-6.1,26.9-14.6,37.6-25.2c10.7-10.7,19.1-23.2,25.2-37.6c6.1-14.4,9.2-29.7,9.2-46s-3.1-31.6-9.2-46c-6.1-14.4-14.6-26.9-25.2-37.6c-10.7-10.7-23.2-19.1-37.6-25.2C159.6,13.1,144.3,10,128,10L128,10L128,10z"/></g></g>
</svg>