<?xml version="1.0" encoding="utf-8"?>
<!-- Svg Vector Icons : http://www.onlinewebfonts.com/icon -->
<!DOCTYPE svg PUBLIC "-//W3C//DTD SVG 1.1//EN" "http://www.w3.org/Graphics/SVG/1.1/DTD/svg11.dtd">
<svg version="1.1" xmlns="http://www.w3.org/2000/svg" xmlns:xlink="http://www.w3.org/1999/xlink" x="0px" y="0px" viewBox="0 0 256 256" enable-background="new 0 0 256 256" xml:space="preserve">
<metadata> Svg Vector Icons : http://www.onlinewebfonts.com/icon </metadata>
<g><g><g><path fill="currentColor" d="M34.2,34.5L10,58.7l34.7,34.7L79.3,128l-34.7,34.7L10,197.3l24.4,24.3L58.7,246l34.7-34.7l34.7-34.7l34.7,34.7l34.7,34.7l24.3-24.4l24.4-24.3l-34.7-34.7L176.7,128l34.7-34.7L246,58.7l-24.4-24.3L197.3,10l-34.7,34.7L128,79.3L93.5,44.8C74.5,25.8,58.9,10.3,58.7,10.3C58.5,10.3,47.5,21.2,34.2,34.5z M93.5,54.9L128,89.5l34.7-34.7l34.7-34.7l19.2,19.3l19.3,19.2l-34.7,34.7L166.5,128l34.7,34.7l34.7,34.7l-19.3,19.2l-19.2,19.3l-34.7-34.7L128,166.5l-34.7,34.7l-34.7,34.7l-19.2-19.3l-19.3-19.2l34.7-34.7L89.5,128L54.8,93.3L20.2,58.7l19.1-19.1c10.5-10.5,19.2-19.1,19.4-19.1C58.9,20.5,74.5,36,93.5,54.9z"/></g></g></g>
</svg>